<svg width="40" height="40" viewBox="0 0 40 40" fill="none" xmlns="http://www.w3.org/2000/svg">
<g clip-path="url(#clip0_207_2275)">
<path d="M31.1 34.8333C30.4167 34.2167 29.35 34.2833 28.75 34.9833C27.8 36.0667 26.4333 36.6833 25 36.6833H8.33333C5.58333 36.6833 3.33333 34.4333 3.33333 31.6833V8.33333C3.33333 5.58333 5.58333 3.33333 8.33333 3.33333H15.85C16.1167 3.33333 16.4 3.33333 16.6667 3.36667V11.6667C16.6667 14.4167 18.9167 16.6667 21.6667 16.6667H31.35C31.8667 16.6667 32.35 16.4333 32.6667 16.0167C32.9833 15.6 33.0833 15.0833 32.9667 14.5833C32.45 12.55 31.4 10.7 29.9167 9.21667L24.1167 3.41667C21.9167 1.21667 18.9833 0 15.8667 0H8.33333C3.73333 0 0 3.73333 0 8.33333V31.6667C0 36.2667 3.73333 40 8.33333 40H25C27.3833 40 29.6667 38.9667 31.25 37.1833C31.8667 36.5 31.8 35.4333 31.1 34.8333ZM20 4.43333C20.6333 4.8 21.2167 5.25 21.75 5.78333L27.55 11.5833C28.0667 12.1 28.5167 12.7 28.8833 13.3333H21.65C20.7333 13.3333 19.9833 12.5833 19.9833 11.6667V4.43333H20ZM38.55 30.15L35.8667 32.8333C35.5333 33.1667 35.1167 33.3167 34.6833 33.3167C34.25 33.3167 33.8333 33.15 33.5 32.8333C32.85 32.1833 32.85 31.1333 33.5 30.4833L35.65 28.3333H23.3167C22.4 28.3333 21.65 27.5833 21.65 26.6667C21.65 25.75 22.4 25 23.3167 25H35.65L33.5 22.85C32.85 22.2 32.85 21.15 33.5 20.5C34.15 19.85 35.2 19.85 35.85 20.5L38.5333 23.1833C40.45 25.1 40.45 28.2333 38.5333 30.1667L38.55 30.15Z" fill="white"/>
</g>
<defs>
<clipPath id="clip0_207_2275">
<rect width="40" height="40" fill="white"/>
</clipPath>
</defs>
</svg>
