<svg width="40" height="40" viewBox="0 0 40 40" fill="none" xmlns="http://www.w3.org/2000/svg">
<g clip-path="url(#clip0_207_2273)">
<path d="M23.3335 40C22.9728 40 22.622 39.883 22.3335 39.6667L15.6668 34.6667C15.4598 34.5114 15.2918 34.3101 15.1761 34.0787C15.0604 33.8473 15.0001 33.5921 15.0001 33.3333V23.9667L3.3068 10.8117C2.47633 9.8748 1.9341 8.71803 1.74526 7.48039C1.55643 6.24275 1.72904 4.97692 2.24234 3.83502C2.75563 2.69313 3.58778 1.72376 4.63876 1.04344C5.68975 0.363121 6.91484 0.000790698 8.1668 0L31.8335 0C33.0853 0.00146842 34.3101 0.364399 35.3607 1.04518C36.4112 1.72596 37.2428 2.69562 37.7556 3.83764C38.2683 4.97966 38.4404 6.24546 38.2511 7.48291C38.0618 8.72037 37.5192 9.87683 36.6885 10.8133L25.0001 23.9667V38.3333C25.0001 38.7754 24.8245 39.1993 24.512 39.5118C24.1994 39.8244 23.7755 40 23.3335 40ZM18.3335 32.5L21.6668 35V23.3333C21.6671 22.9253 21.8172 22.5315 22.0885 22.2267L34.2018 8.59833C34.6057 8.1418 34.8693 7.5784 34.9609 6.97575C35.0524 6.37311 34.9681 5.75684 34.7181 5.20093C34.468 4.64502 34.0628 4.17309 33.5511 3.84181C33.0394 3.51053 32.443 3.33397 31.8335 3.33333H8.1668C7.55755 3.33426 6.9615 3.51091 6.45014 3.84211C5.93877 4.17331 5.53381 4.64499 5.28381 5.20058C5.03381 5.75618 4.94939 6.3721 5.04068 6.97447C5.13196 7.57684 5.39508 8.14009 5.79846 8.59667L17.9135 22.2267C18.1842 22.5317 18.3336 22.9255 18.3335 23.3333V32.5Z" fill="white"/>
</g>
<defs>
<clipPath id="clip0_207_2273">
<rect width="40" height="40" fill="white"/>
</clipPath>
</defs>
</svg>
