<svg width="40" height="40" viewBox="0 0 40 40" fill="none" xmlns="http://www.w3.org/2000/svg">
<g clip-path="url(#clip0_207_2279)">
<path d="M21.1781 29.5117C21.8298 30.1633 21.8298 31.2167 21.1781 31.8683L14.0231 39.0233C13.3731 39.6733 12.5198 39.9983 11.6664 39.9983C10.8131 39.9983 9.95977 39.6733 9.30977 39.0233L2.15477 31.8683C1.5031 31.2167 1.5031 30.1633 2.15477 29.5117C2.80643 28.86 3.85977 28.86 4.51143 29.5117L9.99977 35V1.66667C9.99977 0.745 10.7464 0 11.6664 0C12.5864 0 13.3331 0.745 13.3331 1.66667V35L18.8214 29.5117C19.4731 28.86 20.5264 28.86 21.1781 29.5117ZM37.8448 8.13167L30.6898 0.976667C29.3914 -0.321667 27.2748 -0.321667 25.9764 0.976667L18.8214 8.13167C18.1698 8.78333 18.1698 9.83667 18.8214 10.4883C19.4731 11.14 20.5264 11.14 21.1781 10.4883L26.6664 5V38.3333C26.6664 39.255 27.4114 40 28.3331 40C29.2548 40 29.9998 39.255 29.9998 38.3333V5L35.4881 10.4883C35.8131 10.8133 36.2398 10.9767 36.6664 10.9767C37.0931 10.9767 37.5198 10.8133 37.8448 10.4883C38.4964 9.83667 38.4964 8.78333 37.8448 8.13167Z" fill="white"/>
</g>
<defs>
<clipPath id="clip0_207_2279">
<rect width="40" height="40" fill="white"/>
</clipPath>
</defs>
</svg>
